<svg version="1.1" id="Layer_1" xmlns="http://www.w3.org/2000/svg" xmlns:xlink="http://www.w3.org/1999/xlink" x="0px" y="0px"
	 width="100%" viewBox="0 0 918 216" enable-background="new 0 0 918 216" xml:space="preserve">
<path fill="#010100" opacity="1.000000" stroke="none" 
	d="
M611.000000,217.000000 
	C407.378113,217.000000 204.256226,217.000000 1.067172,217.000000 
	C1.067172,145.060699 1.067172,73.121330 1.067172,1.090978 
	C307.000000,1.090978 613.000000,1.090978 918.966003,1.090978 
	C918.966003,73.077065 918.966003,145.038544 918.966003,217.000000 
	C816.454651,217.000000 713.977356,217.000000 611.000000,217.000000 
M826.546265,122.165039 
	C827.052429,124.092911 827.709595,125.996040 828.030640,127.954269 
	C828.556152,131.159241 830.273926,131.461929 832.478149,130.599747 
	C832.478149,112.457764 832.478149,94.691002 832.478149,76.924240 
	C832.016724,76.575378 831.555237,76.226517 831.093811,75.877655 
	C829.907837,76.981361 828.267639,77.869209 827.621216,79.229355 
	C825.705627,83.260124 824.619568,87.728546 822.413757,91.568977 
	C817.844421,99.524216 811.543335,102.676666 799.077515,101.060204 
	C799.077515,88.819290 799.045105,76.521744 799.093018,64.224510 
	C799.113098,59.065567 799.155029,53.898548 799.458130,48.751171 
	C799.758789,43.646435 802.592285,40.857716 807.824707,40.820591 
	C813.313599,40.781647 818.816528,40.551178 824.289185,40.848072 
	C834.541809,41.404278 842.056274,46.541954 845.922607,55.975655 
	C848.292847,61.758915 849.590637,68.009178 851.049866,74.126091 
	C851.725647,76.959106 852.678894,78.333000 856.248291,76.866562 
	C856.248291,63.455257 856.248291,49.919514 856.248291,36.387150 
	C822.310608,36.387150 788.391541,36.387150 754.472412,36.387150 
	C754.216858,36.813641 753.961304,37.240131 753.705750,37.666626 
	C754.894531,38.479809 755.996826,39.805832 757.286133,40.023361 
	C765.976135,41.489555 767.587097,43.061962 768.372620,51.832684 
	C768.595032,54.316010 768.646484,56.821243 768.649353,59.316582 
	C768.671387,78.305931 768.689453,97.295364 768.652954,116.284668 
	C768.627625,129.441544 768.803223,142.608429 768.340820,155.751556 
	C768.014465,165.029022 766.330750,166.299072 757.215332,167.982819 
	C755.927734,168.220673 754.854553,169.619553 753.682129,170.481033 
	C753.946350,170.855698 754.210510,171.230347 754.474731,171.605011 
	C789.846313,171.605011 825.217957,171.605011 860.599365,171.605011 
	C860.225769,163.924301 859.729370,156.613617 859.553650,149.295242 
	C859.375549,141.876038 859.514343,134.449219 859.514343,127.025742 
	C859.115051,126.733353 858.715759,126.440964 858.316467,126.148575 
	C857.205261,127.419022 855.617004,128.518005 855.085327,129.996796 
	C854.080872,132.790787 853.760193,135.822586 853.022034,138.721619 
	C847.567932,160.142410 837.835388,167.685013 815.774658,167.631409 
	C814.276245,167.627777 812.775024,167.623291 811.280151,167.533859 
	C801.009949,166.919342 799.253845,165.223328 799.140625,154.784286 
	C798.988892,140.793747 799.086609,126.800514 799.077698,112.808434 
	C799.076294,110.538918 799.077515,108.269402 799.077515,106.091034 
	C814.001282,104.329399 821.562134,108.744087 826.546265,122.165039 
M108.609528,167.634796 
	C106.172668,167.634796 103.735809,167.634796 100.397766,167.634796 
	C101.685844,165.045914 102.532631,163.296249 103.420013,161.567413 
	C123.548538,122.352150 143.695999,83.146568 163.775818,43.906391 
	C164.918137,41.674049 165.513596,39.161877 166.502319,36.391075 
	C133.157913,36.391075 100.760735,36.391075 68.674156,36.391075 
	C68.674156,50.896511 68.674156,65.156372 68.674156,79.243729 
	C73.472839,81.125290 73.437920,77.948997 73.873413,75.420677 
	C75.848000,63.956757 79.684196,53.456242 89.813705,46.588551 
	C102.667137,37.874069 117.151978,41.140190 132.057953,40.412212 
	C130.766464,43.101715 130.032272,44.730026 129.215988,46.316090 
	C108.969513,85.655663 88.697517,124.982117 68.505981,164.349854 
	C67.390846,166.524048 66.930832,169.034256 66.110596,171.558228 
	C99.990814,171.558228 132.852280,171.558228 165.185699,171.558228 
	C165.185699,156.192368 165.185699,141.239548 165.185699,126.316101 
	C160.646255,126.157181 160.707947,126.167107 160.020599,130.437668 
	C157.412552,146.641739 150.093109,159.772049 133.704514,164.923553 
	C126.127380,167.305328 117.649063,166.820175 108.609528,167.634796 
M403.680023,154.820724 
	C406.669800,158.613342 410.105621,162.142120 412.542328,166.261871 
	C415.994751,172.099045 420.709137,173.289459 427.290100,171.607864 
	C427.290100,169.796967 427.290100,167.845367 427.290100,165.893784 
	C427.290100,136.575394 427.246765,107.256889 427.319061,77.938667 
	C427.338379,70.116600 427.510437,62.283375 427.977020,54.477066 
	C428.482635,46.017986 431.024689,43.171288 438.919006,40.458881 
	C440.239288,40.005253 441.187531,38.468784 442.307678,37.432674 
	C442.017761,37.089344 441.727844,36.746010 441.437927,36.402679 
	C429.177399,36.402679 416.916840,36.402679 404.656311,36.402679 
	C404.397675,36.860023 404.139069,37.317364 403.880432,37.774708 
	C405.206055,38.616653 406.431458,39.906483 407.873322,40.229073 
	C418.593811,42.627602 421.042297,45.154175 422.412201,56.132465 
	C422.782227,59.097626 422.920013,62.108715 422.927948,65.099350 
	C422.979095,84.422699 422.968719,103.746216 422.961273,123.069672 
	C422.960876,124.126701 422.805878,125.183662 422.664001,126.990143 
	C421.144806,125.232224 420.158142,124.151367 419.237885,123.016685 
	C396.683685,95.207726 374.097595,67.424385 351.651703,39.528248 
	C349.537109,36.900211 347.450836,35.994938 344.115906,36.115372 
	C335.971405,36.409500 327.807159,36.119537 319.655426,36.286858 
	C318.238434,36.315941 316.843689,37.431362 315.438690,38.045029 
	C316.671295,38.747025 317.835724,39.868725 319.147736,40.081852 
	C326.774139,41.320705 328.794281,43.260738 329.643341,50.934914 
	C329.880676,53.079990 329.881012,55.258316 329.882080,57.421440 
	C329.895935,85.740341 329.912659,114.059280 329.862457,142.378098 
	C329.855957,146.032745 329.472717,149.686493 329.272308,153.341110 
	C328.865509,160.758987 325.872040,166.025955 317.989441,167.694244 
	C316.843750,167.936737 316.044220,169.814804 314.681702,171.406647 
	C322.160278,171.406647 328.140533,171.406662 334.120758,171.406662 
	C340.258606,171.406662 346.396454,171.406647 352.622772,171.406647 
	C354.017853,167.845657 351.185394,168.069290 348.982025,167.585724 
	C338.194641,165.218384 335.819977,162.557678 334.802826,151.542664 
	C334.466339,147.898880 334.209076,144.232803 334.200043,140.576218 
	C334.143707,117.754646 334.163269,94.932877 334.178375,72.111183 
	C334.179199,70.877472 334.366669,69.643883 334.566406,67.193321 
	C357.936920,96.836121 380.578583,125.554474 403.680023,154.820724 
M648.310059,173.210190 
	C648.858032,172.688507 649.704773,172.263107 649.908569,171.630508 
	C652.473694,163.669083 652.591797,163.521667 660.047119,167.389450 
	C675.579041,175.447266 691.899109,176.626846 708.588013,172.517029 
	C722.382812,169.119904 733.668274,161.995270 737.572754,147.319000 
	C741.677429,131.889679 737.477539,118.329857 725.109497,108.308731 
	C713.883240,99.212784 701.679688,91.332207 690.094910,82.664635 
	C685.730896,79.399513 681.331970,75.882324 677.944214,71.678040 
	C672.249756,64.611130 671.489197,56.297535 675.665527,48.232502 
	C679.828674,40.193005 687.475281,37.924171 695.961670,38.260422 
	C705.960876,38.656616 713.779724,43.631279 718.195557,52.199516 
	C721.931946,59.449371 723.970520,67.614471 726.364563,75.494797 
	C727.237366,78.367912 727.868591,80.139870 731.653259,78.197044 
	C731.653259,64.103485 731.653259,49.838043 731.646973,35.565178 
	C728.240173,34.162605 727.860107,36.582375 727.219849,38.936295 
	C725.868774,43.903057 724.393066,44.555195 719.766968,42.408665 
	C718.712891,41.919559 717.683594,41.365135 716.685059,40.770012 
	C701.391968,31.655277 685.240112,31.663822 669.014526,37.174694 
	C655.383850,41.804214 647.211853,51.388191 646.257324,66.295807 
	C645.504395,78.056267 649.410461,88.184540 658.290771,95.667297 
	C666.916809,102.935799 676.593567,108.943428 685.433105,115.976982 
	C692.151611,121.322815 699.187988,126.686707 704.473450,133.324173 
	C713.873474,145.128906 709.097229,162.979233 696.213440,167.754288 
	C681.466187,173.219986 665.504211,167.946243 658.843994,153.687485 
	C654.782349,144.991699 653.297607,135.048813 651.054565,125.571594 
	C650.312134,122.434898 649.796021,120.477745 645.332520,122.515343 
	C645.332520,138.445312 645.300598,154.589432 645.423157,170.732346 
	C645.429504,171.573868 646.751831,172.405396 648.310059,173.210190 
M605.073242,102.432648 
	C595.647278,95.869339 586.110474,89.457481 576.844788,82.675209 
	C572.577576,79.551689 568.314941,76.136414 564.979797,72.087723 
	C559.078735,64.924156 558.097839,56.483734 562.401062,48.239536 
	C566.679993,40.041832 574.512451,37.821323 583.201294,38.295727 
	C590.927979,38.717602 597.197632,42.180126 602.153992,48.096180 
	C608.565613,55.749409 611.675781,64.760551 613.033386,74.486221 
	C613.436523,77.373840 613.653931,80.338966 618.211548,78.293465 
	C618.211548,71.157303 618.211487,64.006828 618.211487,56.856354 
	C618.211487,49.735764 618.211548,42.615170 618.211548,35.391987 
	C615.359802,34.422779 614.582764,36.182934 613.971252,38.881237 
	C612.840027,43.872971 611.169006,44.562256 606.552917,42.436001 
	C605.497375,41.949806 604.473816,41.382854 603.474609,40.787544 
	C588.183777,31.678030 572.043945,31.698563 555.796326,37.155067 
	C543.200012,41.385345 534.921326,50.034946 533.227112,63.758755 
	C531.672791,76.349274 535.317627,87.460083 545.007690,95.636299 
	C553.755493,103.017448 563.590698,109.095078 572.567993,116.223923 
	C579.162781,121.460785 586.145508,126.700417 591.199829,133.286118 
	C602.614868,148.159836 594.096619,167.135239 575.736145,169.282028 
	C560.680176,171.042465 548.811462,164.237396 543.276733,149.354691 
	C540.471069,141.810516 539.445801,133.591644 537.777771,125.643761 
	C537.184753,122.818184 536.819397,120.256248 532.548096,122.450844 
	C532.548096,139.190155 532.548096,155.987061 532.548096,174.088959 
	C534.290466,172.817368 536.286072,172.139465 536.757812,170.887405 
	C539.375732,163.939178 539.660706,163.622116 546.109924,167.050171 
	C561.560364,175.262756 577.851685,176.563934 594.614014,172.747147 
	C617.264221,167.589661 628.524231,151.551758 624.947754,129.757965 
	C622.969177,117.701225 614.696533,109.954094 605.073242,102.432648 
M200.651917,155.778549 
	C205.919418,164.247864 213.409180,169.845673 223.090927,172.005585 
	C229.231628,173.375534 235.552063,174.251282 241.834625,174.619629 
	C268.067688,176.157700 285.089111,162.961441 288.105316,137.066498 
	C290.005096,120.756546 289.501434,104.157669 289.890076,87.684013 
	C290.125824,77.691147 289.847290,67.685921 290.097015,57.693672 
	C290.304596,49.386826 292.218323,42.047398 302.152771,40.187851 
	C303.098541,40.010818 303.710571,38.050655 304.835602,36.389614 
	C291.335693,36.389614 279.240723,36.389614 267.145721,36.389614 
	C266.877502,36.789833 266.609283,37.190048 266.341064,37.590267 
	C267.396179,38.458862 268.366394,39.940704 269.519653,40.100395 
	C280.088837,41.563881 284.854431,46.336929 285.019775,59.028267 
	C285.295410,80.184799 285.255493,101.346840 285.161346,122.505730 
	C285.139954,127.311874 284.603821,132.152863 283.876648,136.912430 
	C280.449554,159.344147 266.590515,170.361221 245.741165,167.586151 
	C235.914185,166.278183 229.228653,161.063889 227.012482,151.508942 
	C225.298508,144.119263 224.252853,136.420395 224.143295,128.841171 
	C223.791687,104.518036 223.980026,80.186569 224.025940,55.858444 
	C224.049683,43.282169 225.905670,41.303818 238.463638,39.866383 
	C238.742874,39.834419 238.990387,39.525379 239.270569,39.333344 
	C240.369965,35.720619 237.944153,36.084122 235.698196,36.094166 
	C219.872940,36.164970 204.047562,36.205276 188.222214,36.251720 
	C185.254944,36.260429 182.287643,36.252972 179.320358,36.252972 
	C179.050568,36.674171 178.780792,37.095375 178.511017,37.516575 
	C179.553741,38.369633 180.493561,39.771854 181.655350,39.989586 
	C191.691223,41.870434 192.831818,43.042419 193.299500,53.294563 
	C193.458832,56.787609 193.396255,60.290985 193.425232,63.789726 
	C193.611511,86.281120 193.654175,108.775032 194.052490,131.262650 
	C194.200699,139.629456 195.928726,147.786163 200.651917,155.778549 
M462.265930,167.063889 
	C460.232544,168.964127 454.755615,165.659241 455.063263,171.661469 
	C474.835175,171.661469 494.270721,171.661469 515.553955,171.661469 
	C513.646606,169.784698 512.842651,168.282486 511.747314,168.026306 
	C501.303711,165.583832 500.010406,164.271225 499.988892,153.725677 
	C499.920929,120.417252 499.917145,87.108490 499.996582,53.800114 
	C500.021057,43.548943 501.542511,42.031303 511.671539,39.987934 
	C512.784180,39.763481 513.649475,38.313290 514.629517,37.431599 
	C514.338440,37.084614 514.047424,36.737629 513.756348,36.390644 
	C494.328918,36.390644 474.901459,36.390644 455.474030,36.390644 
	C455.180634,36.732719 454.887238,37.074791 454.593872,37.416866 
	C455.670044,38.309124 456.642517,39.789249 457.838867,40.000313 
	C467.114410,41.636665 468.758728,43.353138 469.148865,52.621090 
	C469.232880,54.617004 469.254791,56.616768 469.255188,58.614773 
	C469.261505,88.925629 469.269073,119.236496 469.245117,149.547333 
	C469.242615,152.708817 469.212341,155.887680 468.888794,159.026947 
	C468.509216,162.710068 466.976501,165.749817 462.265930,167.063889 
z"/>
<path fill="#CBAE4E" opacity="1.000000" stroke="none" 
	d="
M826.383423,121.808891 
	C821.562134,108.744087 814.001282,104.329399 799.077515,106.091034 
	C799.077515,108.269402 799.076294,110.538918 799.077698,112.808434 
	C799.086609,126.800514 798.988892,140.793747 799.140625,154.784286 
	C799.253845,165.223328 801.009949,166.919342 811.280151,167.533859 
	C812.775024,167.623291 814.276245,167.627777 815.774658,167.631409 
	C837.835388,167.685013 847.567932,160.142410 853.022034,138.721619 
	C853.760193,135.822586 854.080872,132.790787 855.085327,129.996796 
	C855.617004,128.518005 857.205261,127.419022 858.316467,126.148575 
	C858.715759,126.440964 859.115051,126.733353 859.514343,127.025742 
	C859.514343,134.449219 859.375549,141.876038 859.553650,149.295242 
	C859.729370,156.613617 860.225769,163.924301 860.599365,171.605011 
	C825.217957,171.605011 789.846313,171.605011 754.474731,171.605011 
	C754.210510,171.230347 753.946350,170.855698 753.682129,170.481033 
	C754.854553,169.619553 755.927734,168.220673 757.215332,167.982819 
	C766.330750,166.299072 768.014465,165.029022 768.340820,155.751556 
	C768.803223,142.608429 768.627625,129.441544 768.652954,116.284668 
	C768.689453,97.295364 768.671387,78.305931 768.649353,59.316582 
	C768.646484,56.821243 768.595032,54.316010 768.372620,51.832684 
	C767.587097,43.061962 765.976135,41.489555 757.286133,40.023361 
	C755.996826,39.805832 754.894531,38.479809 753.705750,37.666626 
	C753.961304,37.240131 754.216858,36.813641 754.472412,36.387150 
	C788.391541,36.387150 822.310608,36.387150 856.248291,36.387150 
	C856.248291,49.919514 856.248291,63.455257 856.248291,76.866562 
	C852.678894,78.333000 851.725647,76.959106 851.049866,74.126091 
	C849.590637,68.009178 848.292847,61.758915 845.922607,55.975655 
	C842.056274,46.541954 834.541809,41.404278 824.289185,40.848072 
	C818.816528,40.551178 813.313599,40.781647 807.824707,40.820591 
	C802.592285,40.857716 799.758789,43.646435 799.458130,48.751171 
	C799.155029,53.898548 799.113098,59.065567 799.093018,64.224510 
	C799.045105,76.521744 799.077515,88.819290 799.077515,101.060204 
	C811.543335,102.676666 817.844421,99.524216 822.413757,91.568977 
	C824.619568,87.728546 825.705627,83.260124 827.621216,79.229355 
	C828.267639,77.869209 829.907837,76.981361 831.093811,75.877655 
	C831.555237,76.226517 832.016724,76.575378 832.478149,76.924240 
	C832.478149,94.691002 832.478149,112.457764 832.478149,130.599747 
	C830.273926,131.461929 828.556152,131.159241 828.030640,127.954269 
	C827.709595,125.996040 827.052429,124.092911 826.383423,121.808891 
z"/>
<path fill="#CBAE4E" opacity="1.000000" stroke="none" 
	d="
M109.094421,167.634827 
	C117.649063,166.820175 126.127380,167.305328 133.704514,164.923553 
	C150.093109,159.772049 157.412552,146.641739 160.020599,130.437668 
	C160.707947,126.167107 160.646255,126.157181 165.185699,126.316101 
	C165.185699,141.239548 165.185699,156.192368 165.185699,171.558228 
	C132.852280,171.558228 99.990814,171.558228 66.110596,171.558228 
	C66.930832,169.034256 67.390846,166.524048 68.505981,164.349854 
	C88.697517,124.982117 108.969513,85.655663 129.215988,46.316090 
	C130.032272,44.730026 130.766464,43.101715 132.057953,40.412212 
	C117.151978,41.140190 102.667137,37.874069 89.813705,46.588551 
	C79.684196,53.456242 75.848000,63.956757 73.873413,75.420677 
	C73.437920,77.948997 73.472839,81.125290 68.674156,79.243729 
	C68.674156,65.156372 68.674156,50.896511 68.674156,36.391075 
	C100.760735,36.391075 133.157913,36.391075 166.502319,36.391075 
	C165.513596,39.161877 164.918137,41.674049 163.775818,43.906391 
	C143.695999,83.146568 123.548538,122.352150 103.420013,161.567413 
	C102.532631,163.296249 101.685844,165.045914 100.397766,167.634796 
	C103.735809,167.634796 106.172668,167.634796 109.094421,167.634827 
z"/>
<path fill="#CBAF4E" opacity="1.000000" stroke="none" 
	d="
M403.450134,154.546783 
	C380.578583,125.554474 357.936920,96.836121 334.566406,67.193321 
	C334.366669,69.643883 334.179199,70.877472 334.178375,72.111183 
	C334.163269,94.932877 334.143707,117.754646 334.200043,140.576218 
	C334.209076,144.232803 334.466339,147.898880 334.802826,151.542664 
	C335.819977,162.557678 338.194641,165.218384 348.982025,167.585724 
	C351.185394,168.069290 354.017853,167.845657 352.622772,171.406647 
	C346.396454,171.406647 340.258606,171.406662 334.120758,171.406662 
	C328.140533,171.406662 322.160278,171.406647 314.681702,171.406647 
	C316.044220,169.814804 316.843750,167.936737 317.989441,167.694244 
	C325.872040,166.025955 328.865509,160.758987 329.272308,153.341110 
	C329.472717,149.686493 329.855957,146.032745 329.862457,142.378098 
	C329.912659,114.059280 329.895935,85.740341 329.882080,57.421440 
	C329.881012,55.258316 329.880676,53.079990 329.643341,50.934914 
	C328.794281,43.260738 326.774139,41.320705 319.147736,40.081852 
	C317.835724,39.868725 316.671295,38.747025 315.438690,38.045029 
	C316.843689,37.431362 318.238434,36.315941 319.655426,36.286858 
	C327.807159,36.119537 335.971405,36.409500 344.115906,36.115372 
	C347.450836,35.994938 349.537109,36.900211 351.651703,39.528248 
	C374.097595,67.424385 396.683685,95.207726 419.237885,123.016685 
	C420.158142,124.151367 421.144806,125.232224 422.664001,126.990143 
	C422.805878,125.183662 422.960876,124.126701 422.961273,123.069672 
	C422.968719,103.746216 422.979095,84.422699 422.927948,65.099350 
	C422.920013,62.108715 422.782227,59.097626 422.412201,56.132465 
	C421.042297,45.154175 418.593811,42.627602 407.873322,40.229073 
	C406.431458,39.906483 405.206055,38.616653 403.880432,37.774708 
	C404.139069,37.317364 404.397675,36.860023 404.656311,36.402679 
	C416.916840,36.402679 429.177399,36.402679 441.437927,36.402679 
	C441.727844,36.746010 442.017761,37.089344 442.307678,37.432674 
	C441.187531,38.468784 440.239288,40.005253 438.919006,40.458881 
	C431.024689,43.171288 428.482635,46.017986 427.977020,54.477066 
	C427.510437,62.283375 427.338379,70.116600 427.319061,77.938667 
	C427.246765,107.256889 427.290100,136.575394 427.290100,165.893784 
	C427.290100,167.845367 427.290100,169.796967 427.290100,171.607864 
	C420.709137,173.289459 415.994751,172.099045 412.542328,166.261871 
	C410.105621,162.142120 406.669800,158.613342 403.450134,154.546783 
z"/>
<path fill="#CBAE4E" opacity="1.000000" stroke="none" 
	d="
M647.885742,173.225891 
	C646.751831,172.405396 645.429504,171.573868 645.423157,170.732346 
	C645.300598,154.589432 645.332520,138.445312 645.332520,122.515343 
	C649.796021,120.477745 650.312134,122.434898 651.054565,125.571594 
	C653.297607,135.048813 654.782349,144.991699 658.843994,153.687485 
	C665.504211,167.946243 681.466187,173.219986 696.213440,167.754288 
	C709.097229,162.979233 713.873474,145.128906 704.473450,133.324173 
	C699.187988,126.686707 692.151611,121.322815 685.433105,115.976982 
	C676.593567,108.943428 666.916809,102.935799 658.290771,95.667297 
	C649.410461,88.184540 645.504395,78.056267 646.257324,66.295807 
	C647.211853,51.388191 655.383850,41.804214 669.014526,37.174694 
	C685.240112,31.663822 701.391968,31.655277 716.685059,40.770012 
	C717.683594,41.365135 718.712891,41.919559 719.766968,42.408665 
	C724.393066,44.555195 725.868774,43.903057 727.219849,38.936295 
	C727.860107,36.582375 728.240173,34.162605 731.650146,35.568890 
	C731.653259,49.838043 731.653259,64.103485 731.653259,78.197044 
	C727.868591,80.139870 727.237366,78.367912 726.364563,75.494797 
	C723.970520,67.614471 721.931946,59.449371 718.195557,52.199516 
	C713.779724,43.631279 705.960876,38.656616 695.961670,38.260422 
	C687.475281,37.924171 679.828674,40.193005 675.665527,48.232502 
	C671.489197,56.297535 672.249756,64.611130 677.944214,71.678040 
	C681.331970,75.882324 685.730896,79.399513 690.094910,82.664635 
	C701.679688,91.332207 713.883240,99.212784 725.109497,108.308731 
	C737.477539,118.329857 741.677429,131.889679 737.572754,147.319000 
	C733.668274,161.995270 722.382812,169.119904 708.588013,172.517029 
	C691.899109,176.626846 675.579041,175.447266 660.047119,167.389450 
	C652.591797,163.521667 652.473694,163.669083 649.908569,171.630508 
	C649.704773,172.263107 648.858032,172.688507 647.885742,173.225891 
z"/>
<path fill="#CBAE4E" opacity="1.000000" stroke="none" 
	d="
M605.352051,102.655960 
	C614.696533,109.954094 622.969177,117.701225 624.947754,129.757965 
	C628.524231,151.551758 617.264221,167.589661 594.614014,172.747147 
	C577.851685,176.563934 561.560364,175.262756 546.109924,167.050171 
	C539.660706,163.622116 539.375732,163.939178 536.757812,170.887405 
	C536.286072,172.139465 534.290466,172.817368 532.548096,174.088959 
	C532.548096,155.987061 532.548096,139.190155 532.548096,122.450844 
	C536.819397,120.256248 537.184753,122.818184 537.777771,125.643761 
	C539.445801,133.591644 540.471069,141.810516 543.276733,149.354691 
	C548.811462,164.237396 560.680176,171.042465 575.736145,169.282028 
	C594.096619,167.135239 602.614868,148.159836 591.199829,133.286118 
	C586.145508,126.700417 579.162781,121.460785 572.567993,116.223923 
	C563.590698,109.095078 553.755493,103.017448 545.007690,95.636299 
	C535.317627,87.460083 531.672791,76.349274 533.227112,63.758755 
	C534.921326,50.034946 543.200012,41.385345 555.796326,37.155067 
	C572.043945,31.698563 588.183777,31.678030 603.474609,40.787544 
	C604.473816,41.382854 605.497375,41.949806 606.552917,42.436001 
	C611.169006,44.562256 612.840027,43.872971 613.971252,38.881237 
	C614.582764,36.182934 615.359802,34.422779 618.211548,35.391987 
	C618.211548,42.615170 618.211487,49.735764 618.211487,56.856354 
	C618.211487,64.006828 618.211548,71.157303 618.211548,78.293465 
	C613.653931,80.338966 613.436523,77.373840 613.033386,74.486221 
	C611.675781,64.760551 608.565613,55.749409 602.153992,48.096180 
	C597.197632,42.180126 590.927979,38.717602 583.201294,38.295727 
	C574.512451,37.821323 566.679993,40.041832 562.401062,48.239536 
	C558.097839,56.483734 559.078735,64.924156 564.979797,72.087723 
	C568.314941,76.136414 572.577576,79.551689 576.844788,82.675209 
	C586.110474,89.457481 595.647278,95.869339 605.352051,102.655960 
z"/>
<path fill="#C9AD4D" opacity="1.000000" stroke="none" 
	d="
M200.432892,155.481506 
	C195.928726,147.786163 194.200699,139.629456 194.052490,131.262650 
	C193.654175,108.775032 193.611511,86.281120 193.425232,63.789726 
	C193.396255,60.290985 193.458832,56.787609 193.299500,53.294563 
	C192.831818,43.042419 191.691223,41.870434 181.655350,39.989586 
	C180.493561,39.771854 179.553741,38.369633 178.511017,37.516575 
	C178.780792,37.095375 179.050568,36.674171 179.320358,36.252972 
	C182.287643,36.252972 185.254944,36.260429 188.222214,36.251720 
	C204.047562,36.205276 219.872940,36.164970 235.698196,36.094166 
	C237.944153,36.084122 240.369965,35.720619 239.270569,39.333344 
	C238.990387,39.525379 238.742874,39.834419 238.463638,39.866383 
	C225.905670,41.303818 224.049683,43.282169 224.025940,55.858444 
	C223.980026,80.186569 223.791687,104.518036 224.143295,128.841171 
	C224.252853,136.420395 225.298508,144.119263 227.012482,151.508942 
	C229.228653,161.063889 235.914185,166.278183 245.741165,167.586151 
	C266.590515,170.361221 280.449554,159.344147 283.876648,136.912430 
	C284.603821,132.152863 285.139954,127.311874 285.161346,122.505730 
	C285.255493,101.346840 285.295410,80.184799 285.019775,59.028267 
	C284.854431,46.336929 280.088837,41.563881 269.519653,40.100395 
	C268.366394,39.940704 267.396179,38.458862 266.341064,37.590267 
	C266.609283,37.190048 266.877502,36.789833 267.145721,36.389614 
	C279.240723,36.389614 291.335693,36.389614 304.835602,36.389614 
	C303.710571,38.050655 303.098541,40.010818 302.152771,40.187851 
	C292.218323,42.047398 290.304596,49.386826 290.097015,57.693672 
	C289.847290,67.685921 290.125824,77.691147 289.890076,87.684013 
	C289.501434,104.157669 290.005096,120.756546 288.105316,137.066498 
	C285.089111,162.961441 268.067688,176.157700 241.834625,174.619629 
	C235.552063,174.251282 229.231628,173.375534 223.090927,172.005585 
	C213.409180,169.845673 205.919418,164.247864 200.432892,155.481506 
z"/>
<path fill="#CBAE4E" opacity="1.000000" stroke="none" 
	d="
M462.663177,166.993271 
	C466.976501,165.749817 468.509216,162.710068 468.888794,159.026947 
	C469.212341,155.887680 469.242615,152.708817 469.245117,149.547333 
	C469.269073,119.236496 469.261505,88.925629 469.255188,58.614773 
	C469.254791,56.616768 469.232880,54.617004 469.148865,52.621090 
	C468.758728,43.353138 467.114410,41.636665 457.838867,40.000313 
	C456.642517,39.789249 455.670044,38.309124 454.593872,37.416866 
	C454.887238,37.074791 455.180634,36.732719 455.474030,36.390644 
	C474.901459,36.390644 494.328918,36.390644 513.756348,36.390644 
	C514.047424,36.737629 514.338440,37.084614 514.629517,37.431599 
	C513.649475,38.313290 512.784180,39.763481 511.671539,39.987934 
	C501.542511,42.031303 500.021057,43.548943 499.996582,53.800114 
	C499.917145,87.108490 499.920929,120.417252 499.988892,153.725677 
	C500.010406,164.271225 501.303711,165.583832 511.747314,168.026306 
	C512.842651,168.282486 513.646606,169.784698 515.553955,171.661469 
	C494.270721,171.661469 474.835175,171.661469 455.063263,171.661469 
	C454.755615,165.659241 460.232544,168.964127 462.663177,166.993271 
z"/>
</svg>